<svg xmlns="http://www.w3.org/2000/svg" width="24" height="24" viewBox="0 0 24 24">
    <g fill="none" fill-rule="evenodd">
        <path fill="#3091FF" d="M20.8 12c0 .863-1.697 1.447-1.95 2.226-.262.807.759 2.275.269 2.947-.493.679-2.21.159-2.887.653-.672.489-.704 2.283-1.512 2.546-.778.252-1.857-1.172-2.72-1.172-.863 0-1.941 1.424-2.72 1.171-.807-.262-.84-2.057-1.511-2.545-.68-.494-2.395.026-2.888-.653-.49-.672.53-2.14.27-2.947C4.898 13.447 3.2 12.863 3.2 12s1.698-1.447 1.95-2.226c.262-.807-.758-2.275-.27-2.947.494-.679 2.21-.159 2.889-.653.672-.489.704-2.283 1.51-2.546C10.06 3.376 11.138 4.8 12 4.8c.864 0 1.943-1.424 2.72-1.171.809.262.842 2.057 1.513 2.545.678.494 2.394-.026 2.887.653.49.672-.531 2.14-.27 2.947.254.779 1.95 1.363 1.95 2.226"/>
        <path stroke="#FFF" stroke-width="2" d="M16 9.5l-5 5-3-2.95"/>
    </g>
</svg>
