<svg xmlns="http://www.w3.org/2000/svg" width="24" height="24" viewBox="0 0 24 24">
    <g fill="none" fill-rule="evenodd">
        <path fill="#000" fill-opacity="0" d="M0 0h24v24H0z"/>
        <path fill="#D3D3D3" fill-rule="nonzero" d="M8.4 5A4.357 4.357 0 0 0 4 9.4C4 16 12 20 12 20s8-4 8-10.6C20 6.936 18.065 5 15.6 5c-1.392 0-2.728.714-3.6 1.739C11.128 5.714 9.792 5 8.4 5zm3.425 12.585a18.233 18.233 0 0 1-2.477-1.887C7.224 13.76 6 11.632 6 9.4 6 8.04 7.04 7 8.4 7c.973 0 2.173.8 3.6 2.4C13.427 7.8 14.627 7 15.6 7 16.96 7 18 8.04 18 9.4c0 2.232-1.224 4.36-3.348 6.298A18.233 18.233 0 0 1 12 17.696a20.418 20.418 0 0 1-.175-.11z"/>
    </g>
</svg>
